<svg width="24" height="24" viewBox="0 0 24 24" fill="none" xmlns="http://www.w3.org/2000/svg">
<path fill-rule="evenodd" clip-rule="evenodd" d="M4.06355 1.25L7.81447 1.25C8.12684 1.25 8.4065 1.44361 8.51646 1.73599L9.9719 5.60588C10.0201 5.73398 10.0323 5.87281 10.0072 6.00735L9.27792 9.91931C10.1743 12.0273 11.6549 13.4439 14.1106 14.7146L17.9755 13.9657C18.1127 13.9391 18.2546 13.9514 18.3853 14.0012L22.267 15.4804C22.5578 15.5912 22.7499 15.87 22.7499 16.1812L22.75 19.7655C22.75 21.391 21.3177 22.7101 19.6425 22.3456C16.5889 21.6811 10.9316 19.9923 6.96962 16.0303C3.17449 12.2352 1.90294 6.99252 1.4749 4.15869C1.23067 2.54172 2.52747 1.25 4.06355 1.25ZM7.29525 2.75L4.06355 2.75C3.34453 2.75 2.86552 3.32183 2.95808 3.93467C3.37086 6.66748 4.57848 11.5179 8.03028 14.9697C11.6787 18.6181 16.9825 20.2317 19.9614 20.8799C20.6157 21.0222 21.25 20.524 21.25 19.7655L21.2499 16.698L18.0509 15.479L14.1426 16.2363C13.98 16.2678 13.8116 16.2446 13.6635 16.1703C10.7693 14.7176 8.89033 12.9954 7.8036 10.2785C7.7508 10.1466 7.73661 10.0023 7.76266 9.86255L8.49427 5.9381L7.29525 2.75Z" fill="#33836E"/>
</svg>
